<?xml version="1.0" standalone="no"?>
<!DOCTYPE svg PUBLIC "-//W3C//DTD SVG 20010904//EN"
 "http://www.w3.org/TR/2001/REC-SVG-20010904/DTD/svg10.dtd">
<svg version="1.0" xmlns="http://www.w3.org/2000/svg"
 width="533.000000pt" height="702.000000pt" viewBox="0 0 533.000000 702.000000"
 preserveAspectRatio="xMidYMid meet">
<metadata>
Created by potrace 1.13, written by Peter Selinger 2001-2015
</metadata>
<g transform="translate(0.000000,702.000000) scale(0.100000,-0.100000)"
fill="#000000" stroke="none">
<path d="M2590 6963 c-49 -7 -145 -46 -185 -73 -81 -57 -145 -139 -175 -225
-102 -298 110 -604 420 -606 89 -1 145 12 221 53 319 169 318 628 -1 802 -77
42 -195 63 -280 49z"/>
<path d="M1016 6525 c-89 -31 -170 -94 -223 -174 -57 -83 -77 -154 -77 -261 1
-135 50 -239 154 -333 205 -185 529 -139 680 95 81 124 94 300 32 431 -37 81
-121 172 -193 212 -113 61 -253 72 -373 30z"/>
<path d="M4008 6531 c-162 -52 -281 -193 -311 -366 -23 -135 27 -285 130 -388
180 -180 465 -179 643 3 139 142 170 353 78 534 -27 53 -112 142 -166 173
-106 63 -259 80 -374 44z"/>
<path d="M124 5306 c-40 -18 -72 -59 -80 -103 -13 -70 39 -347 103 -548 167
-523 489 -1019 1069 -1650 65 -71 274 -289 464 -484 190 -195 403 -415 474
-490 699 -740 999 -1241 1070 -1790 14 -109 16 -116 50 -150 l36 -36 481 -3
c525 -3 520 -3 564 56 41 56 17 330 -55 612 -113 449 -339 886 -715 1386 -81
108 -125 174 -125 190 0 39 23 74 95 144 103 100 477 491 604 630 678 745
1015 1357 1106 2006 17 120 10 159 -40 203 -51 44 -87 47 -176 16 -273 -98
-504 -169 -748 -230 -151 -38 -185 -51 -213 -82 -10 -11 -41 -72 -69 -137
-150 -351 -385 -674 -849 -1171 -93 -99 -233 -244 -312 -322 -160 -158 -183
-170 -253 -137 -42 20 -461 451 -679 700 -317 360 -506 639 -627 921 -52 120
-75 155 -119 178 -14 7 -113 36 -220 64 -216 56 -402 113 -619 190 -155 55
-170 57 -217 37z"/>
<path d="M2106 4859 c-42 -22 -68 -75 -62 -124 6 -53 119 -276 202 -400 83
-125 193 -260 278 -344 61 -60 68 -65 119 -69 74 -6 100 10 201 124 161 180
273 345 372 547 42 86 54 120 54 157 0 50 -22 90 -63 112 -15 8 -172 11 -547
12 -460 1 -528 -1 -554 -15z"/>
<path d="M1595 1863 c-44 -11 -78 -50 -160 -185 -168 -274 -276 -502 -365
-768 -76 -228 -129 -499 -133 -680 -2 -97 10 -126 66 -160 31 -19 54 -20 507
-20 454 0 476 1 507 20 45 27 62 67 74 168 23 204 84 406 185 612 76 157 86
205 57 271 -33 73 -228 305 -502 598 -132 141 -165 161 -236 144z"/>
</g>
</svg>
